<?xml version="1.0" standalone="no"?>
<!DOCTYPE svg PUBLIC "-//W3C//DTD SVG 1.1//EN" "http://www.w3.org/Graphics/SVG/1.1/DTD/svg11.dtd" >
<svg xmlns="http://www.w3.org/2000/svg">
<metadata></metadata>
<defs>
<font id="quicksandlight" horiz-adv-x="1255" >
<font-face units-per-em="2048" ascent="1638" descent="-410" />
<missing-glyph horiz-adv-x="614" />
<glyph horiz-adv-x="2048" />
<glyph horiz-adv-x="2048" />
<glyph unicode="&#xd;" horiz-adv-x="681" />
<glyph unicode=" "  horiz-adv-x="614" />
<glyph unicode="&#x09;" horiz-adv-x="614" />
<glyph unicode="&#xa0;" horiz-adv-x="614" />
<glyph unicode="!" horiz-adv-x="516" d="M190 27v49q0 25 27 24q8 0 16.5 -7t8.5 -17v-49q0 -27 -26 -27t-26 27zM190 342v1065q0 27 26 27t26 -27v-1065q0 -25 -26 -25t-26 25z" />
<glyph unicode="&#x22;" horiz-adv-x="839" d="M143 944l62 440q8 53 57 54h39q33 0 33 -35q0 -2 -10 -49l-117 -412q-12 -37 -35 -37q-35 0 -29 39zM512 944l61 440q8 53 58 54h39q33 0 32 -35q0 -2 -10 -49l-117 -412q-12 -37 -34 -37q-35 0 -29 39z" />
<glyph unicode="#" horiz-adv-x="1433" />
<glyph unicode="$" horiz-adv-x="1294" d="M129 223.5q2 14.5 13.5 18.5t23.5 -4q223 -180 465 -197v688q-199 39 -316 117q-141 94 -141 239q2 145 134 248t323 113v55q0 4 1 23.5t19 21.5q25 0 25 -45v-55q82 -2 168 -32t135 -58.5t123 -77.5q10 -6 9 -19.5t-10 -19.5t-24 0q-74 49 -121 75.5t-125.5 54.5 t-154.5 30v-631q233 -47 358 -127q152 -100 151 -260t-150.5 -271.5t-358.5 -115.5v-49q0 -45 -25 -45q-10 0 -13 4t-5 6t-2 8v76q-258 16 -494 207q-10 8 -8 22.5zM221 1094q0 -233 410 -318v623q-160 -8 -285 -94t-125 -211zM676 41q178 2 320.5 98.5t142.5 234.5 t-131 228q-109 74 -332 119v-680z" />
<glyph unicode="%" horiz-adv-x="1687" d="M113 1079v4q0 150 89 258.5t227 108.5t226 -107.5t88 -255.5v-4q0 -149 -89 -257.5t-227 -108.5t-226 107.5t-88 254.5zM162 1083q0 -145 80 -243.5t190.5 -98.5t186 97.5t75.5 240.5v4q0 145 -79.5 243.5t-189.5 98.5t-186.5 -99t-76.5 -239v-4zM315 27l23 34l997 1358 q10 14 21 15q16 0 19 -10.5t-25 -51.5l-998 -1356q-10 -10 -20 -10t-14.5 7.5t-2.5 13.5zM944 346v4q0 150 89 258.5t227.5 108.5t226.5 -107.5t88 -255.5v-4q0 -149 -89 -257.5t-227.5 -108.5t-226.5 107.5t-88 254.5zM991 350q0 -143 82 -241.5t190.5 -98.5t186.5 97.5 t78 238.5v4q0 143 -82 241.5t-190.5 98.5t-186.5 -99t-78 -237v-4z" />
<glyph unicode="&#x26;" horiz-adv-x="1425" d="M100 459q0 125 61.5 230.5t164.5 166.5q-106 100 -106.5 241.5t97 239t234.5 97.5t234.5 -97.5t97.5 -234.5q0 -27 -27 -27q-10 0 -18.5 8.5t-8.5 18.5q0 117 -81.5 198.5t-197.5 81.5t-197 -81.5t-81 -198.5q0 -147 117 -230l8 -10q4 -12 -3 -24.5t-19 -12.5 q-100 -53 -161.5 -151.5t-61.5 -214.5q0 -168 118.5 -288t288.5 -120t290 119t120 289q0 55 -17 114h-12q-27 4 -72 5q-178 0 -256 -74q-49 -49 -49 -127l2 -39l2 -12q8 -23 -14 -35h-8q-35 0 -35 86q0 125 96 188.5t262 63.5q47 0 74 -2h12q131 0 142 127q0 14 -9 59 q-10 23 18 30t32 -20q31 -115 -31 -188q-39 -47 -100 -57q14 -55 14 -119q0 -190 -134 -324.5t-325.5 -134.5t-326 134t-134.5 325z" />
<glyph unicode="'" horiz-adv-x="471" d="M143 944l62 440q8 53 57 54h39q33 0 33 -35q0 -2 -10 -49l-117 -412q-12 -37 -35 -37q-35 0 -29 39z" />
<glyph unicode="(" horiz-adv-x="880" d="M145.5 620.5q-0.5 354.5 98.5 571.5q113 250 342 248q31 0 30 -29q0 -12 -9 -21.5t-21 -9.5q-188 0 -284.5 -207.5t-96.5 -552t97 -552t284 -207.5q31 0 30 -29q0 -12 -9 -21.5t-21 -9.5q-229 0 -342 250q-98 215 -98.5 569.5z" />
<glyph unicode=")" horiz-adv-x="880" d="M123 -168q0 29 31 29q186 0 283.5 207.5t97.5 552t-96.5 552t-284.5 207.5q-12 0 -21.5 9.5t-9.5 21.5q0 29 31 29q229 2 342 -248q98 -217 98 -571.5t-98 -569.5q-113 -250 -342 -250q-12 0 -21.5 9.5t-9.5 21.5z" />
<glyph unicode="*" horiz-adv-x="880" d="M156 1000.5q0 21.5 28 33.5l211 101l-211 100q-29 14 -28 39q0 39 41 43q14 0 32 -12l187 -127l-17 223q-2 18 10.5 31.5t31 13.5t30.5 -13.5t10 -31.5l-16 -223l186 127q18 12 33.5 12t28 -13.5t12.5 -35t-29 -33.5l-211 -100l211 -101q29 -12 29 -33.5t-12.5 -35 t-27.5 -13.5t-34 13l-186 127l16 -224q2 -18 -10 -31.5t-30.5 -13.5t-31 13.5t-10.5 31.5l17 224l-187 -127q-18 -12 -33.5 -12.5t-27.5 13t-12 35z" />
<glyph unicode="+" horiz-adv-x="1269" d="M131 705.5q0 35.5 37 35.5h432v435q0 35 37 34q12 0 23.5 -10t11.5 -24v-435h434q12 0 23.5 -10t11.5 -24.5t-11.5 -25.5t-23.5 -11h-434v-432q0 -14 -11.5 -25.5t-23.5 -11.5q-37 0 -37 37v432h-432q-37 0 -37 35.5z" />
<glyph unicode="," horiz-adv-x="471" d="M111 -184q0 16 16 26q104 57 96 158q-55 14 -55 72v43q0 29 19.5 48t48 19t48 -19.5t19.5 -47.5v-52q0 -158 -60.5 -218t-96 -60t-35.5 31z" />
<glyph unicode="-" horiz-adv-x="835" d="M135.5 716.5q-0.5 20.5 20.5 20.5h467q18 0 18 -20.5t-18 -20.5h-467q-20 0 -20.5 20.5z" />
<glyph unicode="." horiz-adv-x="471" d="M168 53.5q0 28.5 20.5 49t49 20.5t49 -20.5t20.5 -49t-20.5 -49t-49 -20.5t-49 20.5t-20.5 49z" />
<glyph unicode="/" horiz-adv-x="864" d="M156 37l579 1376q4 10 14.5 14.5t18.5 -0.5q25 -8 16 -32l-583 -1379q-4 -16 -20.5 -16t-23.5 12.5t-1 24.5z" />
<glyph unicode="0" horiz-adv-x="1454" d="M133 718q0 294 141.5 504t346.5 212q207 -2 348 -212t141 -504t-140.5 -505t-348.5 -213q-205 2 -346.5 213t-141.5 505zM184 716.5q0 -274.5 133 -472.5q125 -193 304.5 -193t304.5 193q133 193 133 473t-133 473q-125 193 -304.5 193t-304.5 -193 q-133 -199 -133 -473.5z" />
<glyph unicode="1" horiz-adv-x="686" d="M65.5 1226.5q-6.5 18.5 12.5 28.5l287 170q23 16 35 -7t-11 -36l-287 -172q-4 -2 -17 -2t-19.5 18.5zM352 27v1378q0 10 8.5 18.5t16.5 8.5q27 0 26 -27v-1378q0 -27 -26 -27q-10 0 -17.5 8t-7.5 19z" />
<glyph unicode="2" horiz-adv-x="1208" d="M95.5 16.5q-7.5 16.5 4.5 30.5l693 625q135 125 135 290.5t-115 292.5t-281.5 127t-285.5 -106l-72 -66q-12 -10 -26.5 -5t-16.5 18.5t8 23.5l72 68q133 119 322.5 119t326.5 -150q119 -135 119 -324.5t-154 -324.5l-643 -584h772q25 0 25 -24q0 -10 -7 -18.5t-18 -8.5 h-835q-16 0 -23.5 16.5z" />
<glyph unicode="3" horiz-adv-x="1249" d="M156 141q-18 18 0 37t37 0q125 -123 301 -123t300 124t124 300t-123 301q-127 123 -299 123q-12 0 -28.5 17.5t1.5 35.5l414 426h-633q-27 0 -27 27t27 27h694q27 0 27 -27q0 -14 -8 -23l-422 -432q174 -16 290 -137q139 -139 139.5 -335.5t-139.5 -340.5 q-143 -139 -337 -139h-2q-199 0 -336 139z" />
<glyph unicode="4" horiz-adv-x="1359" d="M102.5 319.5q-8.5 14.5 1.5 26.5l865 1075q10 10 18 10.5t27 -18.5q2 -4 2 -6v-1051h125q27 0 26.5 -25.5t-26.5 -25.5h-125v-278q0 -27 -27 -27q-10 0 -18 8t-8 19v278h-838q-14 0 -22.5 14.5zM178 356h785v971z" />
<glyph unicode="5" horiz-adv-x="1239" d="M125 803l72 604q4 27 32 27h693q10 0 18 -8.5t8 -18.5q0 -27 -26 -27h-674l-62 -520q125 94 285 94q201 0 340 -139q137 -141 137 -339t-141 -335q-139 -141 -336 -141t-338 141q-12 10 -7 24.5t18.5 18.5t25.5 -6q129 -125 302 -125t298 125t125 301t-124 299t-298 123 t-303 -123q-4 -8 -15.5 -8t-19.5 6q-4 0 -4 4q-8 8 -6 23z" />
<glyph unicode="6" horiz-adv-x="1314" d="M131 567.5q0 147.5 39 300t113.5 278.5t199.5 203.5t285 84.5q27 0 27 -26t-23 -26q-262 -12 -408.5 -211.5t-175.5 -492.5q57 115 168 182.5t244 67.5q193 0 329 -135.5t138 -327.5q-2 -193 -138 -329t-322.5 -136t-318 118t-149.5 294q-8 8 -8 155.5zM188 464 q0 -171 121 -292t292 -121t291 121t124 293q-4 172 -124 292t-291 120t-292 -121t-121 -292z" />
<glyph unicode="7" horiz-adv-x="1202" d="M131 1405q0 10 8 18.5t19 8.5h798q10 0 18.5 -9.5t8.5 -16.5t-8 -20l-578 -1370q-4 -16 -17 -15t-15 1q-23 10 -15 35l563 1341h-755q-27 0 -27 27z" />
<glyph unicode="8" horiz-adv-x="1290" d="M113 438q0 172 95 293t241 162q-74 35 -119 103.5t-45 152.5q0 119 83 202t200.5 83t200.5 -83t83 -202q0 -84 -45 -152.5t-117 -103.5q145 -41 240.5 -162t95.5 -293t-134 -305t-322.5 -133t-322.5 133t-134 305zM164 455q0 -168 118.5 -286t286.5 -118t287 118t119 286 t-119 286.5t-287 118.5t-286.5 -118.5t-118.5 -286.5zM336 1149q0 -96 68.5 -163.5t164 -67.5t164 67.5t68.5 163.5t-67.5 163.5t-164.5 69.5q-96 -2 -164.5 -69.5t-68.5 -163.5z" />
<glyph unicode="9" horiz-adv-x="1314" d="M135 968.5q0 192.5 137.5 329t323.5 136.5t318.5 -123t148.5 -303q8 -51 8 -170t-39 -271.5t-114.5 -278.5t-200.5 -204t-283 -84q-27 0 -26 27q-2 8 5 16t17 8q295 14 455 283q104 182 127 420q-57 -113 -168 -180.5t-242 -67.5q-193 0 -330 135t-137 327.5zM186 970 q0 -171 122 -292t293 -121t292 121t121 291q0 20 -2 30v11q-16 158 -133 265t-283 107t-288 -120.5t-122 -291.5z" />
<glyph unicode=":" horiz-adv-x="491" d="M178 59v56q0 29 19.5 48t48 19t48 -19.5t19.5 -47.5v-56q0 -29 -19.5 -48t-48 -19t-48 19.5t-19.5 47.5zM178 930v55q0 29 19.5 48.5t48 19.5t48 -19.5t19.5 -48.5v-55q0 -29 -19.5 -48.5t-48 -19.5t-48 19.5t-19.5 48.5z" />
<glyph unicode=";" horiz-adv-x="491" d="M121 -184q0 16 16 26q104 57 96 158q-55 14 -55 72v43q0 29 19.5 48t48 19t48 -19.5t19.5 -47.5v-52q0 -158 -60 -218t-96 -60t-36 31zM178 930v55q0 29 19.5 48.5t48 19.5t48 -19.5t19.5 -48.5v-55q0 -29 -19.5 -48.5t-48 -19.5t-48 19.5t-19.5 48.5z" />
<glyph unicode="&#x3c;" horiz-adv-x="1269" d="M125 705q-4 8 4 26q6 6 682 690q23 23 45 0q14 -23 0 -45l-659 -663l659 -662q14 -20 0 -43q-8 -8 -22.5 -8t-22.5 8l-676 682q-2 0 -6 5t-4 10z" />
<glyph unicode="=" horiz-adv-x="1269" d="M162 500q0 33 31 32h700q12 0 21.5 -10t9.5 -22q0 -27 -31 -27h-700q-31 0 -31 27zM162 924q0 31 31 30h700q12 0 21.5 -9t9.5 -20.5t-9.5 -18.5t-21.5 -7h-700q-31 0 -31 25z" />
<glyph unicode="&#x3e;" horiz-adv-x="1269" d="M190 8q-14 23 0 43l658 662l-658 663q-14 23 0 45q23 23 46 0l673 -684l4 -2q0 -2 1.5 -2t7.5 -12v-16q-2 -2 -6.5 -8.5t-679.5 -688.5q-8 -8 -22.5 -8t-23.5 8z" />
<glyph unicode="?" horiz-adv-x="1093" d="M84 1217q55 100 155.5 158.5t219.5 58.5q176 0 304 -127t128 -303.5t-120 -301t-288 -135.5v-250q0 -10 -8 -17t-16 -7q-25 -1 -25 24v275q0 25 25 24q156 0 268.5 113t112.5 271.5t-112 271t-269 112.5q-106 0 -194.5 -52t-139.5 -140q-16 -20 -34.5 -5t-6.5 30zM434 25 v47q0 25 25 24q8 0 16 -7t8 -17v-47q0 -25 -24.5 -25t-24.5 25z" />
<glyph unicode="@" horiz-adv-x="2007" d="M109 717q0 297 209.5 508t506.5 211t508 -210t211 -509q0 -174 -80 -328q-23 -43 -73 -88t-101 -59l-39 -2q-53 0 -89 38.5t-36 92.5v155q-47 -84 -126.5 -133t-174.5 -49q-143 0 -247.5 110.5t-104.5 263t103.5 261t249 108.5t248 -108.5t102.5 -261.5v-340 q0 -33 21.5 -58.5t47 -25.5t33.5 6q70 12 131 98l10 19q72 139 72 301q0 276 -194.5 470.5t-470 194.5t-470 -194.5t-194.5 -470t194.5 -470t468.5 -194.5q90 0 164 21q25 4 35 -19q4 -25 -20 -35q-92 -20 -179 -20q-297 0 -506.5 210t-209.5 507zM526 718q0 -132 88 -226.5 t211 -94.5t212 94.5t89 226.5t-89 226t-212 94t-211 -94t-88 -226z" />
<glyph unicode="A" horiz-adv-x="1323" d="M119 41l516 1376q6 19 22 19h3q18 -2 28 -19l516 -1376q3 -7 3 -13q0 -14 -17 -22q-2 0 -13.5 -1t-21.5 18l-137 366h-717l-137 -366q-4 -18 -23 -19q-8 2 -10 2q-16 7 -16 20q0 7 4 15zM322 442h675l-338 897z" />
<glyph unicode="B" horiz-adv-x="1216" d="M213 27v1380q0 27 27 27h327q143 0 244.5 -101.5t101.5 -242.5q0 -96 -48 -176t-130 -126q139 -27 231.5 -136t92.5 -264t-116 -271.5t-281 -116.5h-422q-27 0 -27 27zM264 51h398q143 0 243.5 101.5t100.5 245t-100.5 244.5t-243.5 101h-398v-692zM264 799h303 q121 0 206 85t87 206q-2 119 -87 204.5t-206 87.5h-303v-583z" />
<glyph unicode="C" horiz-adv-x="1579" d="M150 728q0 300 218 513t525 213q260 0 465 -158q14 -11 14 -22q0 -7 -6 -14q-23 -23 -39 -5q-188 145 -434 146q-285 0 -487.5 -196.5t-202.5 -476t202.5 -477.5t487.5 -198q244 1 432 146q23 15 39 -3q7 -7 7 -16q0 -11 -13 -22q-211 -158 -465 -158q-307 2 -525 215 t-218 513z" />
<glyph unicode="D" horiz-adv-x="1472" d="M213 27v1380q0 27 27 27h274q297 0 507 -210t210 -507t-210 -507t-507 -210h-274q-27 0 -27 27zM264 51h250q276 4 470 197.5t196 470.5q-2 274 -195.5 468.5t-470.5 194.5h-250v-1331z" />
<glyph unicode="E" horiz-adv-x="1214" d="M213 27v1380q0 23 25 27h763q25 0 25 -26t-25 -26h-737v-639h649q25 0 25 -25.5t-25 -25.5h-649v-641h737q25 0 25 -25.5t-25 -25.5h-763q-25 0 -25 27z" />
<glyph unicode="F" horiz-adv-x="1239" d="M213 27v1380q0 27 23 27h765q25 0 25 -26t-25 -26h-739v-639h651q25 0 25 -25.5t-25 -25.5h-651v-665q0 -27 -26 -27q-23 0 -23 27z" />
<glyph unicode="G" horiz-adv-x="1667" d="M150 739q0 305 222 521.5t535 216.5q268 0 471 -160q14 -10 14 -21q0 -9 -8 -19q-20 -22 -38 -3q-189 151 -436 151h-3q-291 0 -497.5 -200.5t-206.5 -484t205.5 -485.5t498.5 -202q238 0 428 142v485h-440q-10 0 -18.5 8t-8.5 18.5t8.5 18.5t18.5 8h469q25 0 25 -28 v-521q0 -4 -3 -6v-4q-2 -10 -8 -14q-207 -160 -471 -160q-313 2 -535 218t-222 521z" />
<glyph unicode="H" horiz-adv-x="1452" d="M213 27v1380q0 27 27 27q10 0 17 -8.5t7 -18.5v-664h815v664q0 27 25.5 27t25.5 -27v-1380q0 -27 -25.5 -27t-25.5 27v665h-815v-665q0 -10 -7 -18.5t-17 -8.5q-27 0 -27 27z" />
<glyph unicode="I" horiz-adv-x="624" d="M227 27v1380q0 27 26 27t26 -27v-1380q0 -27 -26 -27t-26 27z" />
<glyph unicode="J" horiz-adv-x="1216" d="M92 332q-4 7 -4 13q0 13 18 18q25 8 35 -15q41 -131 153 -214t251 -83q176 4 301 128t127 300v928q0 27 22 27q27 0 27 -27v-928q0 -199 -139.5 -339t-337.5 -140q-158 0 -282 93.5t-171 238.5z" />
<glyph unicode="K" horiz-adv-x="1464" d="M213 27v1378q0 27 27 27q10 0 18 -9.5t8 -17.5v-922l940 940q12 10 26.5 5t17.5 -17q1 -3 1 -6q0 -9 -8 -19l-586 -585l588 -756q6 -9 6 -18q0 -7 -3 -13q-7 -14 -17 -14t-25 10l-585 754l-355 -356v-381q0 -10 -8 -18.5t-18 -8.5q-27 0 -27 27z" />
<glyph unicode="L" horiz-adv-x="1153" d="M213 27v1380q0 27 25.5 27t25.5 -27v-1356h740q27 0 27 -25.5t-27 -25.5h-764q-27 0 -27 27z" />
<glyph unicode="M" horiz-adv-x="1728" d="M213 27v1378q0 10 8 18.5t17 8.5q12 0 26 -11l549 -762l549 762q10 10 22 11q27 0 27 -27v-1378q0 -27 -27 -27q-10 0 -17 8.5t-7 18.5v1302l-522 -727q-10 -10 -23 -10h-4q-16 0 -23 10l-524 729v-1304q0 -27 -25.5 -27t-25.5 27z" />
<glyph unicode="N" horiz-adv-x="1579" d="M213 27v1376q0 12 10 22q10 5 18 5q11 0 19 -9l946 -1315v1291q0 10 8.5 18t18.5 8q25 0 24 -26v-1370q0 -27 -24 -27q-18 0 -25 16q-2 0 -2 2l-942 1309v-1300q0 -27 -24 -27q-10 0 -18.5 8t-8.5 19z" />
<glyph unicode="O" horiz-adv-x="1740" d="M150 715q2 307 204.5 523t492.5 216t493.5 -216t207.5 -523q-4 -309 -206.5 -525.5t-493.5 -216.5t-493.5 216.5t-204.5 525.5zM205 715.5q0 -283.5 188.5 -483t454.5 -203.5q264 4 452.5 203.5t190.5 482.5q-2 285 -190.5 485.5t-452.5 200.5t-453.5 -201t-189.5 -484.5 z" />
<glyph unicode="P" horiz-adv-x="1193" d="M213 27v1380q0 27 27 27h419q164 0 282 -117t118 -283t-117 -281.5t-283 -115.5h-395v-610q0 -27 -25.5 -27t-25.5 27zM264 690h395q143 0 245 100.5t102 244t-101.5 245.5t-245.5 102h-395v-692z" />
<glyph unicode="Q" horiz-adv-x="1728" d="M135 725q2 301 203 515t483.5 214t484 -214t201.5 -515q0 -221 -118.5 -404.5t-309.5 -267.5l-293 -137q121 0 213 -57q188 -111 334 -111t283 111q12 10 26 4q16 -8 16 -22q0 -11 -9 -25q-154 -119 -316 -119t-358 117q-84 51 -189.5 51t-214.5 -51q-25 -12 -38 12 t12 39l293 137h-19q-281 0 -481.5 212t-202.5 511zM190 726q0 -280 185.5 -476.5t446.5 -196.5t447.5 196.5t186.5 477.5t-186.5 476.5t-447.5 195.5t-446.5 -196.5t-185.5 -476.5z" />
<glyph unicode="R" horiz-adv-x="1280" d="M184 27v1380q0 27 27 27h420q164 0 281.5 -117t117.5 -267.5t-80 -256t-207 -140.5q260 -109 261 -344q0 -147 30 -209q12 -25 37 -22.5t29 -22.5v-5q0 -14 -8 -20q-10 -7 -27 -7q-45 0 -74 55q-39 66 -39 231q0 129 -110.5 228.5t-354.5 99.5h-251v-610q0 -27 -26 -27 t-26 27zM236 690h399q141 2 241.5 101.5t100.5 243t-101.5 245.5t-244.5 102h-395v-692z" />
<glyph unicode="S" horiz-adv-x="1366" d="M128 224q5 14 17.5 18t26.5 -9.5t64.5 -50.5t178.5 -89t253 -52q207 0 349 102.5t142 251.5q0 117 -67 176q-37 33 -70 54.5t-96 42.5q-74 25 -185.5 51t-152.5 37.5t-108.5 34t-103.5 47t-77 61.5q-74 70 -74 206t130 236.5t315 100.5q203 0 362 -111q57 -39 74 -63 q16 -18 -2 -37q-23 -14 -37 2q-156 156 -397 156q-162 0 -276.5 -84t-114.5 -203q0 -113 86 -193q63 -57 221 -98q45 -12 130 -31.5t127 -31t110.5 -34t105.5 -48t76 -64.5q76 -70 75 -207q0 -170 -156.5 -287.5t-378.5 -117.5t-435 131q-74 45 -96 67q-17 17 -17 30 q0 3 1 6z" />
<glyph unicode="T" horiz-adv-x="1327" d="M102 1408q0 26 27 26h997q27 0 27 -26t-27 -26h-471v-1355q0 -10 -8 -18.5t-18 -8.5q-27 0 -27 27v1355h-473q-27 0 -27 26z" />
<glyph unicode="U" horiz-adv-x="1667" d="M215 575v832q0 27 25.5 27t25.5 -27v-832q0 -217 152.5 -368.5t369.5 -155.5q215 4 368 155.5t155 368.5v832q0 27 26 27q10 0 18.5 -8.5t8.5 -18.5v-832q0 -240 -169 -407.5t-406.5 -167.5t-405.5 167.5t-168 407.5z" />
<glyph unicode="V" horiz-adv-x="1536" d="M121 1395q-4 7 -4 12q0 7 5 13q8 9 21 9q1 -1 3 -1q16 -2 24 -13l555 -1321l557 1321q5 16 18 16q7 0 15 -4q17 -4 17 -19q0 -6 -3 -13l-579 -1379l-2 -2q-2 -10 -13 -12h-2q-2 -2 -8 -2h-6l-4 2q-6 0 -15 14z" />
<glyph unicode="W" horiz-adv-x="2256" d="M131 1395q-5 8 -5 14q0 12 17 18q6 1 12 1q16 0 23 -13l555 -1323l402 952q6 18 26 19q18 4 29 -19l399 -952l557 1323q8 11 24 13q2 0 3 1q13 1 21 -9q5 -5 5 -12q0 -6 -4 -13l-579 -1379q-8 -16 -25.5 -16t-25.5 18l-402 961l-405 -963q-6 -16 -22.5 -16t-24.5 16z" />
<glyph unicode="X" horiz-adv-x="1478" d="M154 14q-3 6 -3 12q0 8 7 15l491 674l-491 676q-6 7 -6 15q0 4 3 10q7 14 20 15h2q12 0 22 -10l481 -661l483 661q8 10 18 10q8 0 17 -6q13 -9 13 -20q0 -7 -5 -14l-493 -676l493 -674q3 -6 3 -12q0 -7 -4 -15q-7 -14 -16 -14t-26 10l-483 662l-481 -662 q-16 -10 -26.5 -10t-18.5 14z" />
<glyph unicode="Y" horiz-adv-x="1236" d="M121 1391q-9 9 -9 17q0 9 14 16q10 6 19 6q10 0 17 -9l487 -669l486 669q8 8 19 8q3 0 6 -1q16 -3 22 -14q3 -5 3 -10q0 -6 -5 -13l-506 -691v-673q0 -27 -25.5 -27t-25.5 27v673z" />
<glyph unicode="Z" horiz-adv-x="1366" d="M145 27q0 14 11 20l968 1331h-952q-27 0 -27 27t27 27h1006q26 0 26 -27q0 -10 -10 -21l-973 -1333h957q27 0 27 -25q0 -26 -27 -26h-1006q-27 0 -27 27z" />
<glyph unicode="[" horiz-adv-x="880" d="M201 -213v1593q0 20 16 37t37 17h475q37 0 37 -29q0 -20 -37 -21h-477v-1601h477q37 0 37 -27q0 -23 -37 -22h-475q-20 0 -36.5 16.5t-16.5 36.5z" />
<glyph unicode="\" horiz-adv-x="917" d="M129 1397q-8 25 16 33q8 4 18.5 -0.5t14.5 -14.5l580 -1376q10 -25 -13 -35q-2 -2 -15 -2t-17 16z" />
<glyph unicode="]" horiz-adv-x="880" d="M113 -244q0 27 37 27h477v1601h-477q-37 0 -37 21q0 29 37 29h475q23 0 38 -17t15 -37v-1593q0 -20 -15.5 -36.5t-37.5 -16.5h-475q-37 0 -37 22z" />
<glyph unicode="^" horiz-adv-x="1024" d="M170 381q-4 25 8 33l367 280q27 20 45 20.5t45 -20.5l364 -280q18 -12 18.5 -36t-9.5 -30q-23 -8 -52 14l-364 289l-369 -289q-13 -10 -33 -8q-16 2 -20 27z" />
<glyph unicode="_" horiz-adv-x="1228" d="M-49 -293q0 35 45 35h684q45 0 45 -35t-45 -35h-684q-45 0 -45 35z" />
<glyph unicode="`" horiz-adv-x="1024" d="M340 1450q0 31 35 31t59 -37l127 -191q8 -12 8 -24t-23.5 -2t-39.5 28l-146 158q-27 27 -20 37z" />
<glyph unicode="a" horiz-adv-x="1267" d="M82 502q0 207 138 354.5t335 147.5q135 0 249 -76t173 -201v250q0 27 25.5 27t25.5 -27v-950q0 -27 -25.5 -27t-25.5 27v249q-59 -125 -173 -200.5t-249 -75.5q-197 0 -335 147.5t-138 354.5zM133 501.5q0 -186.5 124 -318.5t298 -132t298 132t124 318.5t-124 317.5 t-298 131t-298 -131t-124 -317.5z" />
<glyph unicode="b" horiz-adv-x="1351" d="M190 27v1376q0 31 27 31q8 0 16.5 -10.5t8.5 -20.5v-676q61 125 177 201t255 76q203 0 345 -146.5t142 -353.5t-142 -355.5t-345 -148.5q-139 0 -255 76t-177 198v-247q0 -10 -7.5 -18.5t-17.5 -8.5q-27 0 -27 27zM242 504q0 -186 127 -319.5t306 -133.5t307 133 t128 319.5t-128 317.5t-304 131t-303 -126t-133 -304v-18z" />
<glyph unicode="c" horiz-adv-x="1169" d="M119 502q0 207 151.5 354.5t349 147.5t334.5 -109q9 -9 9 -19q0 -8 -6 -16q-13 -20 -35 -6q-127 98 -304.5 98t-312.5 -132t-135 -318.5t135 -318.5t330 -132q156 0 287 101q18 12 34 -8q7 -9 7 -17q0 -9 -9 -18q-141 -109 -319 -109q-213 2 -364.5 148.5t-151.5 353.5z " />
<glyph unicode="d" horiz-adv-x="1351" d="M123 504q0 207 142.5 353.5t344.5 146.5q139 0 255 -76t177 -201v676q0 10 8.5 20.5t16.5 10.5q27 0 27 -31v-1376q0 -27 -27 -27q-10 0 -17.5 8t-7.5 19v247q-61 -123 -176.5 -198.5t-255.5 -75.5q-203 0 -345 148.5t-142 355.5zM174 503.5q0 -186.5 128 -319.5 t307 -133t306 133.5t127 319.5v18q-6 178 -133 304t-303 126t-304 -131t-128 -317.5z" />
<glyph unicode="e" horiz-adv-x="1247" d="M119 502q4 209 145.5 355.5t337 146.5t333.5 -133t152 -330v-9q-4 -25 -24 -24h-893v-6q0 -184 128 -316.5t308 -134.5q113 0 208 55.5t153 149.5q14 20 35.5 6t7.5 -35q-66 -102 -173.5 -164.5t-230.5 -62.5q-201 2 -342 148.5t-145 353.5zM172 557h864 q-20 168 -143 280.5t-288 112.5t-288.5 -112.5t-144.5 -280.5z" />
<glyph unicode="f" horiz-adv-x="741" d="M133 985q0 27 27 27h164v135q0 154 60 221.5t189 67.5q27 0 27 -26t-27 -26q-106 0 -151 -50t-45 -187v-135h172q25 0 24.5 -27t-24.5 -27h-172v-929q0 -27 -26.5 -27t-26.5 27v929h-164q-27 0 -27 27z" />
<glyph unicode="g" horiz-adv-x="1351" d="M123 502q0 207 138 354.5t335 147.5q135 0 250 -76t172 -199v248q0 10 7 18.5t17 8.5q27 0 27 -27v-920q0 -197 -138 -336t-335 -139q-104 0 -209 49q-20 14 -10 34t35 13q90 -45 184 -45q176 4 299 127t123 297v219q-57 -123 -172 -199.5t-250 -76.5q-197 0 -335 147.5 t-138 354.5zM174 501.5q0 -186.5 124 -317.5t298 -131t298 131t124 317.5t-124 318.5t-298 132t-298 -132t-124 -318.5z" />
<glyph unicode="h" d="M190 23v1384q0 27 26 27t26 -27v-614q53 96 148 153.5t208 57.5q168 0 287 -119t119 -289v-569q0 -10 -7.5 -18.5t-17.5 -8.5q-27 0 -27 27v569q0 147 -103.5 250.5t-248.5 103.5t-248.5 -99t-109.5 -241v-583q0 -27 -21 -27h-4q-27 0 -27 23z" />
<glyph unicode="i" horiz-adv-x="575" d="M193 27v952q0 25 25.5 25t25.5 -25v-952q0 -10 -7.5 -18.5t-17.5 -8.5q-26 0 -26 27zM193 1251v49q0 27 25.5 27t25.5 -27v-49q0 -10 -7.5 -17t-17.5 -7h-2q-24 0 -24 24z" />
<glyph unicode="j" horiz-adv-x="509" d="M24 -365q33 0 64 31t31 76v1237q0 25 24 25q10 0 19.5 -7.5t9.5 -17.5v-1237q0 -66 -46 -112t-112 -46q-25 0 -25 25q0 26 35 26zM123 1255v50q0 26 25 26h2q10 0 19 -8t9 -18v-50q0 -10 -9 -17t-19 -7h-2q-25 0 -25 24z" />
<glyph unicode="k" horiz-adv-x="1146" d="M190 27v1380q0 27 27 27q10 0 17.5 -8.5t7.5 -18.5v-1063l659 660q15 16 35 -2q10 -9 11 -18q0 -9 -9 -17l-416 -416l416 -506q6 -7 6 -16q0 -7 -3 -13q-7 -16 -21.5 -16t-20.5 10l-416 502l-235 -236q-4 -4 -6 -4v-245q0 -10 -7.5 -18.5t-17.5 -8.5q-27 0 -27 27z" />
<glyph unicode="l" horiz-adv-x="509" d="M205 27v1380q0 27 25.5 27t25.5 -27v-1380q0 -27 -25.5 -27t-25.5 27z" />
<glyph unicode="m" horiz-adv-x="1947" d="M190 27v571q0 16 5 49v330q0 27 24.5 27t24.5 -27v-182q53 96 146 152.5t212 56.5t222.5 -73t146.5 -190q43 117 146.5 190t232.5 73q166 0 282.5 -119t116.5 -287v-571q0 -27 -25 -27q-10 0 -18 8t-8 19v571q0 147 -102.5 250.5t-246 103.5t-246 -99t-106.5 -241v-585 q0 -7 -2 -9l-4 -10q-8 -8 -20 -8q-25 0 -25 27v571q0 147 -103.5 250.5t-246.5 103.5t-245.5 -99t-106.5 -241v-585l-6 -19l-5 -2q-6 -6 -14 -6h-6q-23 4 -23 27z" />
<glyph unicode="n" d="M190 23v956q0 25 26 25t26 -25v-184q53 94 147 151.5t207 57.5q166 0 284.5 -119t118.5 -287v-571q0 -27 -25.5 -27t-25.5 27v571q0 147 -103.5 250.5t-248.5 103.5t-249.5 -103.5t-104.5 -250.5v-571q0 -27 -25 -27h-8q-4 4 -9 4t-5 8q-4 4 -5 11z" />
<glyph unicode="o" horiz-adv-x="1280" d="M143 502q0 207 138.5 354.5t335 147.5t336 -147.5t139.5 -354.5t-139.5 -354.5t-336 -147.5t-335 147.5t-138.5 354.5zM195 501.5q0 -186.5 123.5 -318.5t298 -132t299 132t124.5 318.5t-124.5 318.5t-299 132t-298 -132t-123.5 -318.5z" />
<glyph unicode="p" horiz-adv-x="1351" d="M190 -412v1389q0 27 26 27t26 -27v-248q59 125 174.5 200t253.5 75q203 0 343 -144.5t140 -351.5t-140.5 -352.5t-342.5 -145.5q-137 0 -253 75t-175 198v-695q0 -27 -26 -27t-26 27zM242 508q0 -184 126 -314.5t302 -130.5t303 130.5t127 313.5t-127 314t-300 131 t-299 -125t-132 -301v-18z" />
<glyph unicode="q" horiz-adv-x="1351" d="M123 508q0 207 140 351.5t343 144.5q137 0 253 -75t175 -200v248q0 27 25.5 27t25.5 -27v-1389q0 -27 -25 -27v1q-26 0 -26 26v695q-59 -123 -175 -198t-253 -75q-203 0 -343 145.5t-140 352.5zM176 507q0 -183 127 -313.5t303 -130.5t302 130.5t126 314.5v18 q-6 176 -132 301t-299 125t-300 -131t-127 -314z" />
<glyph unicode="r" horiz-adv-x="899" d="M193 27v469q-1 2 -1 5t1 7v469q0 10 7 18.5t17 8.5q25 0 25 -27v-340q29 68 63 119q166 248 400 248q27 0 27 -27t-27 -27q-303 0 -463 -454v-469q0 -27 -24.5 -27t-24.5 27z" />
<glyph unicode="s" horiz-adv-x="1007" d="M130 172q5 14 17.5 18.5t24.5 -7t46 -36t122 -60.5t174 -36q137 0 234.5 69.5t97.5 168.5q0 78 -47 119q-51 45 -105 63q-72 23 -147.5 40t-107 25.5t-88 32t-83.5 47.5q-72 66 -72 164q0 100 94 172q93 72 203.5 72t188.5 -33q111 -45 141 -90q10 -10 4 -24.5t-19 -17.5 t-24 7q-104 104 -270 105q-109 0 -186.5 -55.5t-77.5 -135.5q0 -104 94 -149q74 -37 173 -59.5t135 -33t90.5 -32t82.5 -47.5q74 -68 74 -179.5t-111.5 -195.5t-273.5 -84q-94 0 -190 37q-129 51 -187 108q-8 8 -8 18q0 5 1 9z" />
<glyph unicode="t" horiz-adv-x="819" d="M86 978q0 26 27 26h172v401q0 27 25.5 27t25.5 -27v-401h164q27 0 27 -25q0 -27 -27 -27h-164v-798q0 -43 30.5 -74t65.5 -31t35 -25.5t-27 -25.5q-63 0 -109 46t-46 110v798h-172q-27 0 -27 26z" />
<glyph unicode="u" d="M170 406v571q0 27 27 27q10 0 17 -8.5t7 -18.5v-571q0 -147 102.5 -251t248 -104t249 103.5t103.5 251.5v571q0 10 8 18.5t18 8.5q27 0 27 -27v-571q0 -168 -119 -287t-285.5 -119t-284.5 119t-118 287z" />
<glyph unicode="v" horiz-adv-x="1191" d="M115 965q-2 5 -2 9q0 7 5 14q9 11 23.5 10t20.5 -15l377 -891l376 891q4 16 18.5 16t24.5 -11q7 -7 7 -14q0 -4 -2 -9l-400 -947q0 -6 -8 -12t-14 -6h-9q-12 4 -18 16z" />
<glyph unicode="w" horiz-adv-x="1763" d="M125 965q-4 8 -4 14q0 13 18 18q8 4 14 4q13 0 21 -16l375 -893l268 639q6 18 24.5 16t28.5 -16l269 -639l377 893q4 14 19 14t25 -10q6 -6 5 -14q0 -5 -2 -10l-400 -949q0 -6 -8 -11t-15 -5t-12 2q-12 0 -12 10q-2 0 -2 2v2l-270 643l-271 -643q-6 -14 -18 -16h-12 q-6 0 -13.5 7t-7.5 13z" />
<glyph unicode="x" horiz-adv-x="1167" d="M145 41l336 461l-336 459q-7 8 -7 15q0 10 12 19q9 5 17 5q11 0 19 -11l328 -446l322 446q8 8 20 8h6q16 -2 21 -13q3 -5 3 -10q0 -7 -5 -13l-334 -459l334 -461q6 -9 6 -16q0 -11 -15 -19q-2 -6 -15 -6t-21 10l-322 447l-328 -447q-8 -10 -19 -10t-17 6q-11 7 -11 17 q0 8 6 18z" />
<glyph unicode="y" horiz-adv-x="1204" d="M106 406v571q0 27 27 27q10 0 17.5 -8.5t7.5 -18.5v-571q0 -145 103.5 -248t245.5 -103t242.5 98.5t106.5 237.5v590q0 8 8 15.5t19 7.5h4h2l4 -3q14 -14 14 -24v-920q0 -195 -137 -333t-334 -138q-106 0 -205 49q-25 10 -10 35q8 23 31 13q90 -45 184 -45 q174 0 297 122.5t123 296.5v152q-49 -94 -142 -149.5t-204 -55.5q-168 0 -286 118t-118 284z" />
<glyph unicode="z" horiz-adv-x="1134" d="M131 977q0 27 25 27h688q25 0 33 -23v-8v-2q-4 -10 -13 -19l-659 -901h645q27 0 27 -25.5t-27 -25.5h-694q-16 0 -24 14q-4 6 -4 11q0 8 7 16l664 909h-643q-25 0 -25 27z" />
<glyph unicode="{" horiz-adv-x="983" d="M113 588q0 39 49 39q150 0 204 64.5t54 195.5v162q0 172 84 267t327 144q43 8 43 -18q0 -18 -24 -27q-217 -57 -294 -139t-77 -240v-153q0 -129 -54 -197t-159 -98q111 -37 162 -101.5t51 -193.5v-154q0 -158 77 -239.5t294 -139.5q25 -8 24.5 -30.5t-43.5 -14.5 q-244 49 -327.5 144.5t-83.5 267.5v162q0 131 -54.5 195.5t-203.5 64.5q-49 0 -49 39z" />
<glyph unicode="|" horiz-adv-x="585" d="M248 -225v1822q0 45 26 45q33 0 33 -45v-1822q0 -45 -33 -45q-26 0 -26 45z" />
<glyph unicode="}" horiz-adv-x="983" d="M109 -270.5q0 22.5 24 30.5q217 57 294 139.5t77 239.5v154q0 129 51 193.5t162 101.5q-104 31 -158.5 98.5t-54.5 196.5v153q0 158 -77 240t-294 139q-25 8 -24 27q0 27 43 18q244 -49 327.5 -144t83.5 -267v-162q0 -131 54.5 -195.5t203.5 -64.5q49 0 49 -39t-49 -39 q-150 0 -204 -64.5t-54 -195.5v-162q0 -172 -83.5 -267.5t-327.5 -144.5q-43 -8 -43 14.5z" />
<glyph unicode="~" horiz-adv-x="942" d="M174 520q0 4 11.5 40t60.5 74t90 38t135 -39t129 -39q63 0 102 88q0 16 9.5 25.5t17.5 9.5q37 0 37 -35q0 -12 -4 -25q-45 -139 -162 -139q-37 0 -131 40t-131 40q-63 0 -98 -80q-12 -25 -33 -24q-33 0 -33 26z" />
<glyph unicode="&#xa1;" horiz-adv-x="516" d="M190 27v1065q0 25 26 24.5t26 -24.5v-1065q0 -27 -26 -27t-26 27zM190 1358v49q0 27 26 27t26 -27v-49q0 -10 -8.5 -17.5t-16.5 -7.5q-27 0 -27 25z" />
<glyph unicode="&#xa2;" horiz-adv-x="1189" d="M127 500q0 207 150.5 354t363.5 147q66 0 141 -20l41 80q4 10 14.5 14t19.5 1t14.5 -13t2.5 -19l-40 -79q63 -25 127 -72q16 -16 2.5 -35.5t-35.5 -5.5q-59 43 -117 66l-408 -803q109 -63 251.5 -63.5t273.5 100.5q18 12 33.5 -7.5t-0.5 -35.5q-141 -109 -320 -109 q-137 0 -260 70l-39 -76q0 -16 -17.5 -16.5t-25.5 11t-2 23.5l43 84q-98 70 -155.5 176.5t-57.5 227.5zM178 500q0 -109 49 -203t135 -156l398 793q-62 16 -119 16q-193 0 -328 -132t-135 -318z" />
<glyph unicode="&#xa3;" horiz-adv-x="1318" d="M135 -2q0 18 25 20l159 19v600h-135q-43 0 -46 8t-3 14q0 29 49 29h135v262q0 217 118 353.5t323 136.5q248 0 409 -191q14 -18 14.5 -38.5t-7.5 -20.5l-29 2q-14 0 -31 25q-127 176 -356 176q-74 0 -149.5 -30t-123 -77t-82 -142t-34.5 -192v-264h622q49 0 49 -29 q0 -23 -18 -22h-653v-600l778 -2q45 -8 49 -25q0 -18 -11 -21t-38 -3h-987q-27 0 -27 12z" />
<glyph unicode="&#xa5;" horiz-adv-x="1404" d="M119 1391q-20 20 4 33.5t37 -3.5l487 -669l486 669q10 10 25.5 7t21.5 -14t-2 -23l-484 -660h303q12 0 21.5 -9t9.5 -20.5t-9 -18.5t-22 -7h-325v-254h325q12 0 21.5 -10.5t9.5 -22.5q0 -27 -31 -27h-325v-335q0 -27 -25.5 -27t-25.5 27v335h-324q-31 0 -31 27 q0 33 31 33h324v254h-324q-31 0 -31 24q0 31 31 31h301z" />
<glyph unicode="&#xa8;" horiz-adv-x="1024" d="M272 1304.5q0 28.5 20.5 49t49.5 20.5t48.5 -20.5t19.5 -49t-19.5 -49t-48.5 -20.5t-49.5 20.5t-20.5 49zM645 1304.5q0 28.5 20.5 49t49 20.5t49 -20.5t20.5 -49t-20.5 -49t-49 -20.5t-49 20.5t-20.5 49z" />
<glyph unicode="&#xa9;" horiz-adv-x="1699" d="M109 713v4q0 305 217 523t526 218t524 -216t215 -521v-4q0 -305 -217 -523.5t-526 -218.5t-524 216.5t-215 521.5zM170 713q0 -283 194.5 -481.5t483.5 -198.5t485.5 199.5t196.5 484.5v4q0 283 -194.5 481.5t-483.5 198.5t-485.5 -200t-196.5 -484v-4zM485 725v4 q0 158 108.5 272.5t261.5 114.5t269 -102q18 -14 18.5 -35t-13 -33t-30 -12t-34.5 14q-100 86 -214 86t-195 -89t-81 -214v-4q0 -125 83 -215t201 -90t218 90q16 10 30.5 10t27 -12t12.5 -30.5t-14 -28.5q-127 -111 -280 -111t-260.5 112.5t-107.5 272.5z" />
<glyph unicode="&#xab;" horiz-adv-x="1054" />
<glyph unicode="&#xad;" horiz-adv-x="835" d="M135.5 716.5q-0.5 20.5 20.5 20.5h467q18 0 18 -20.5t-18 -20.5h-467q-20 0 -20.5 20.5z" />
<glyph unicode="&#xae;" horiz-adv-x="851" d="M70 1094v2q0 147 104.5 252.5t252.5 105.5t251.5 -104.5t103.5 -251.5v-2q0 -148 -104.5 -253.5t-253 -105.5t-251.5 104.5t-103 252.5zM90 1094q0 -142 96.5 -240t238.5 -98t239.5 99t97.5 241v2q0 141 -96.5 239.5t-238.5 98.5t-239.5 -99.5t-97.5 -240.5v-2zM285 872 q0 -10 9 -10t9 10v197h125q104 -26 104 -104q0 -94 39 -95q10 0 11 11q-4 6 -11 6q-20 0 -20 59.5t-25.5 89t-60.5 37.5q41 12 66.5 46t25.5 83t-37 87t-90 38h-137q-8 0 -8 -8v-447zM303 1087v222h127q47 0 80 -32t33 -78t-33 -79t-80 -33h-127z" />
<glyph unicode="&#xb0;" horiz-adv-x="921" d="M152 1143v4q0 133 90 216t214 83t215 -87t91 -212v-4q0 -123 -87 -211t-217 -88t-218 88t-88 211zM197 1143q0 -104 74.5 -182t185 -78t185.5 77.5t75 182.5v4q0 104 -76 183t-184.5 79t-184 -79t-75.5 -183v-4z" />
<glyph unicode="&#xb4;" horiz-adv-x="1024" d="M412 1229q0 12 8 24l127 191q25 37 50.5 37t33.5 -6q10 -6 10 -25q6 -10 -20 -37l-146 -158q-16 -18 -39.5 -28t-23.5 2z" />
<glyph unicode="&#xb8;" horiz-adv-x="1024" d="M348 -243.5q0 14.5 10 32.5l158 231h88l-133 -270q-20 -41 -49 -41t-51.5 16.5t-22.5 31z" />
<glyph unicode="&#xbf;" horiz-adv-x="1093" d="M115 217q-16 20 6 30.5t35 -5.5q51 -88 139 -140.5t194 -52.5q158 0 269.5 112.5t111.5 271.5t-112.5 271.5t-268.5 112.5q-25 0 -24 25v274q0 25 24 25q10 0 17.5 -7.5t7.5 -17.5v-250q168 -10 288 -135t120 -301t-127 -303t-306 -127q-119 0 -219 58.5t-155 158.5z M465 1362v47q0 25 24.5 25t24.5 -25v-47q0 -10 -7 -17.5t-18 -7.5q-25 0 -24 25z" />
<glyph unicode="&#xc0;" horiz-adv-x="1329" d="M119 41q-11 -25 12 -35q2 0 10 -2q18 0 23 19l137 366h717l137 -366q10 -18 21.5 -17.5t13.5 0.5q25 12 14 35l-516 1376q-10 16 -28.5 18.5t-24.5 -18.5zM322 442l337 897l338 -897h-675zM518 1860q0 31 35 30.5t59 -37.5l127 -190q8 -12 8.5 -24.5t-23.5 -2t-40 28.5 l-145 158q-27 27 -21 37z" />
<glyph unicode="&#xc1;" horiz-adv-x="1323" d="M119 41l516 1376q6 20 24.5 18.5t28.5 -18.5l516 -1376q11 -23 -14 -35q-2 0 -13.5 -1t-21.5 18l-137 366h-717l-137 -366q-4 -18 -23 -19q-8 2 -10 2q-23 10 -12 35zM322 442h675l-338 897zM590 1638.5q0 12.5 8 24.5l127 190q25 37 50.5 37t31.5 -6q12 -6 12 -24 q6 -10 -20 -37l-146 -158q-16 -18 -39.5 -28.5t-23.5 2z" />
<glyph unicode="&#xc2;" horiz-adv-x="1359" d="M121 41q-11 -25 12 -35q2 0 10 -2q18 0 23 19l137 366h717l137 -366q10 -18 21.5 -17.5t13.5 0.5q25 12 14 35l-516 1376q-10 16 -28.5 18.5t-24.5 -18.5zM324 442l338 897l337 -897h-675zM453 1642q0 12 10 25l147 180q31 37 58 37h16q27 0 57 -37l148 -180 q10 -12 10 -25q0 -8 -10 -6t-21.5 2t-50.5 39l-143 154l-142 -156q-37 -37 -51 -37q-29 4 -28 4z" />
<glyph unicode="&#xc3;" horiz-adv-x="1359" d="M121 41q-11 -25 12 -35q2 0 10 -2q18 0 23 19l137 366h717l137 -366q10 -18 21.5 -17.5t13.5 0.5q25 12 14 35l-516 1376q-10 16 -28.5 18.5t-24.5 -18.5zM324 442l338 897l337 -897h-675zM369 1645q0 4 11 39.5t60 73.5t90 38t135.5 -39t129.5 -39q63 0 102 88 q0 16 9 25.5t18 9.5q37 0 37 -35q0 -12 -5 -24q-45 -139 -161 -140q-37 0 -131.5 40t-131.5 40q-63 0 -98 -80q-12 -25 -33 -24q-33 0 -32 27z" />
<glyph unicode="&#xc4;" horiz-adv-x="1357" d="M121 41q-11 -25 12 -35q2 0 10 -2q18 0 23 19l137 366h717l137 -366q10 -18 21.5 -17.5t13.5 0.5q25 12 14 35l-516 1376q-10 16 -28.5 18.5t-24.5 -18.5zM324 442l338 897l337 -897h-675zM406 1714.5q0 28.5 20 49t49 20.5t48.5 -20.5t19.5 -49t-19.5 -49t-48.5 -20.5 t-49 20.5t-20 49zM778 1714.5q0 28.5 20.5 49t49.5 20.5t49.5 -20.5t20.5 -49t-20.5 -49t-49.5 -20.5t-49.5 20.5t-20.5 49z" />
<glyph unicode="&#xc5;" horiz-adv-x="1323" d="M94 39l494 1319q-53 14 -87 58t-34 100v2q0 72 49 115.5t116.5 43.5t117 -46t49.5 -113v-2q0 -53 -32 -97.5t-83 -58.5l496 -1321q10 -23 -15 -35q-2 0 -13 -1t-22 17l-137 367h-717l-137 -367q-4 -18 -22 -18q-8 2 -11 2q-23 10 -12 35zM297 440h676l-338 897zM516 1513 q0 -45 34 -80.5t84 -35.5t83 35.5t33 80.5v3q0 45 -34 80.5t-83 35.5t-83 -35.5t-34 -80.5v-3z" />
<glyph unicode="&#xc6;" horiz-adv-x="2140" d="M86 39q33 68 817 1362q20 33 53 33h1018q49 0 49 -29t-49 -29h-887v-620h795q49 0 49 -33t-49 -33h-795v-631h898q49 0 49 -29.5t-49 -29.5h-906q-23 0 -38 16.5t-15 36.5v369h-641l-246 -406q-14 -23 -39.5 -18.5t-13.5 41.5zM420 477h606v901h-65z" />
<glyph unicode="&#xc7;" horiz-adv-x="1579" d="M150 728q0 300 218 513t525 213q260 0 465 -158q23 -18 8 -36q-23 -23 -39 -5q-188 145 -434 146q-285 0 -487.5 -196.5t-202.5 -476t202.5 -477.5t487.5 -198q244 1 432 146q23 14 39 -3.5t-6 -37.5q-211 -158 -465 -158q-307 2 -525 215t-218 513zM676 -243.5 q0 14.5 10 32.5l158 231h88l-133 -270q-20 -41 -49 -41t-51.5 16.5t-22.5 31z" />
<glyph unicode="&#xc8;" horiz-adv-x="1214" d="M213 27v1380q0 23 25 27h763q25 0 25 -26t-25 -26h-737v-639h649q25 0 25 -25.5t-25 -25.5h-649v-641h737q25 0 25 -25.5t-25 -25.5h-763q-25 0 -25 27zM455 1860q0 31 35 31t59 -37l127 -191q8 -12 8 -24t-23.5 -2t-39.5 28l-146 158q-27 27 -20 37z" />
<glyph unicode="&#xc9;" horiz-adv-x="1214" d="M213 27v1380q0 23 25 27h763q25 0 25 -26t-25 -26h-737v-639h649q25 0 25 -25.5t-25 -25.5h-649v-641h737q25 0 25 -25.5t-25 -25.5h-763q-25 0 -25 27zM514 1638.5q0 12.5 8 24.5l127 190q25 37 50.5 37t33.5 -6q10 -6 10 -24q6 -10 -20 -37l-145 -158 q-16 -18 -40 -28.5t-24 2z" />
<glyph unicode="&#xca;" horiz-adv-x="1214" d="M213 27v1380q0 23 25 27h763q25 0 25 -26t-25 -26h-737v-639h649q25 0 25 -25.5t-25 -25.5h-649v-641h737q25 0 25 -25.5t-25 -25.5h-763q-25 0 -25 27zM398 1643q0 12 10 24l147 181q31 37 58 37h16q27 0 58 -37l147 -181q10 -12 10 -24q0 -8 -10 -6t-21.5 2t-50.5 39 l-143 153l-141 -155q-37 -37 -52 -37q-29 4 -28 4z" />
<glyph unicode="&#xcb;" horiz-adv-x="1372" d="M213 27q0 -27 25 -27h763q25 0 25 25.5t-25 25.5h-737v641h649q25 0 25 25.5t-25 25.5h-649v639h737q25 0 25 26t-25 26h-763q-25 -4 -25 -27v-1380zM360 1714.5q0 28.5 20.5 49t49.5 20.5t48.5 -20.5t19.5 -49t-19.5 -49t-48.5 -20.5t-49.5 20.5t-20.5 49zM733 1714.5 q0 28.5 20.5 49t49 20.5t49 -20.5t20.5 -49t-20.5 -49t-49 -20.5t-49 20.5t-20.5 49z" />
<glyph unicode="&#xcc;" horiz-adv-x="712" d="M309 1860q0 31 35 30.5t59 -37.5l127 -190q8 -12 8.5 -24.5t-23 -2t-40.5 28.5l-145 158q-27 27 -21 37zM395 27q0 -27 25.5 -27t25.5 27v1380q0 27 -25.5 27t-25.5 -27v-1380z" />
<glyph unicode="&#xcd;" horiz-adv-x="561" d="M170 1638.5q0 12.5 8 24.5l127 190q25 37 50.5 37t33.5 -6q10 -6 10 -24q6 -10 -20 -37l-146 -158q-16 -18 -39.5 -28.5t-23.5 2zM262 27v1380q0 27 25.5 27t25.5 -27v-1380q0 -27 -25.5 -27t-25.5 27z" />
<glyph unicode="&#xce;" horiz-adv-x="561" d="M2 1642q0 12 10 25l148 180q31 37 57 37h16q27 0 58 -37l147 -180q10 -12 11 -25q-10 -6 -26.5 -5t-55.5 40l-144 154l-141 -156q-37 -37 -51 -37zM201 27q0 -27 25.5 -27t25.5 27v1380q0 27 -25.5 27t-25.5 -27v-1380z" />
<glyph unicode="&#xcf;" horiz-adv-x="561" d="M-16 1714.5q0 28.5 20.5 49t49 20.5t48 -20.5t19.5 -49t-19.5 -49t-48 -20.5t-49 20.5t-20.5 49zM215 27q0 -27 25.5 -27t25.5 27v1380q0 27 -25.5 27t-25.5 -27v-1380zM356 1714.5q0 28.5 20.5 49t49.5 20.5t49.5 -20.5t20.5 -49t-20.5 -49t-49.5 -20.5t-49.5 20.5 t-20.5 49z" />
<glyph unicode="&#xd0;" horiz-adv-x="1662" d="M113 722.5q0 20.5 20 20.5h205v664q0 27 27 27h274q297 0 507 -210t210 -507t-210 -507t-507 -210h-274q-27 0 -27 27v675h-205q-20 0 -20 20.5zM389 51h250q276 4 470 197.5t196 470.5q-2 274 -196 468.5t-470 194.5h-250v-639h211q18 0 18 -20.5t-18 -20.5h-211v-651z " />
<glyph unicode="&#xd1;" horiz-adv-x="1617" d="M213 27q0 -10 8 -18.5t19 -8.5q25 0 24 27v1300l942 -1309q0 -2 2 -2q6 -16 25 -16q25 0 24 27v1370q0 27 -24 26q-10 0 -18.5 -8t-8.5 -18v-1291l-946 1315q-14 16 -37 4q-10 -10 -10 -22v-1376zM442 1645q0 4 11.5 39.5t60.5 73.5t91 38t136.5 -39t126.5 -39 q63 0 103 88q0 16 9 25.5t17 9.5q37 0 37 -35q0 -12 -4 -24q-45 -139 -162 -140q-37 0 -131 40t-131 40q-63 0 -98 -80q-12 -25 -33 -24q-33 0 -33 27z" />
<glyph unicode="&#xd2;" horiz-adv-x="1740" d="M150 715q2 307 204.5 523t492.5 216t493.5 -216t207.5 -523q-4 -309 -206.5 -525.5t-493.5 -216.5t-493.5 216.5t-204.5 525.5zM205 715.5q0 -283.5 188.5 -483t454.5 -203.5q264 4 452.5 203.5t190.5 482.5q-2 285 -190.5 485.5t-452.5 200.5t-453.5 -201t-189.5 -484.5 zM737 1860q0 31 35 31t59 -37l127 -191q8 -12 8 -24t-23.5 -2t-39.5 28l-146 158q-27 27 -20 37z" />
<glyph unicode="&#xd3;" horiz-adv-x="1740" d="M150 715q2 307 204.5 523t492.5 216t493.5 -216t207.5 -523q-4 -309 -206.5 -525.5t-493.5 -216.5t-493.5 216.5t-204.5 525.5zM205 715.5q0 -283.5 188.5 -483t454.5 -203.5q264 4 452.5 203.5t190.5 482.5q-2 285 -190.5 485.5t-452.5 200.5t-453.5 -201t-189.5 -484.5 zM733 1638.5q0 12.5 8 24.5l127 190q25 37 50.5 37t31.5 -6q12 -6 13 -24q6 -10 -21 -37l-145 -158q-16 -18 -40 -28.5t-24 2z" />
<glyph unicode="&#xd4;" horiz-adv-x="1740" d="M150 715q2 307 204.5 523t492.5 216t493.5 -216t207.5 -523q-4 -309 -206.5 -525.5t-493.5 -216.5t-493.5 216.5t-204.5 525.5zM205 715.5q0 -283.5 188.5 -483t454.5 -203.5q264 4 452.5 203.5t190.5 482.5q-2 285 -190.5 485.5t-452.5 200.5t-453.5 -201t-189.5 -484.5 zM627 1643q0 12 10 24l147 181q31 37 58 37h16q27 0 58 -37l147 -181q10 -12 10 -24q0 -8 -10 -6t-21.5 2t-50.5 39l-143 153l-141 -155q-37 -37 -52 -37q-29 4 -28 4z" />
<glyph unicode="&#xd5;" horiz-adv-x="1740" d="M150 715q2 -309 204.5 -525.5t493.5 -216.5t493.5 216.5t206.5 525.5q-4 307 -207.5 523t-493.5 216t-492.5 -216t-204.5 -523zM205 715.5q0 283.5 189.5 484.5t453.5 201t452.5 -201t190.5 -485q-2 -283 -190.5 -482.5t-452.5 -203.5q-266 4 -454.5 203.5t-188.5 483z M555 1645q0 4 11.5 39.5t60.5 73.5t90 38t135 -39t129 -39q63 0 102 88q0 16 9.5 25.5t17.5 9.5q37 0 37 -35q0 -12 -4 -24q-45 -139 -162 -140q-37 0 -131 40t-131 40q-63 0 -98 -80q-12 -25 -33 -24q-33 0 -33 27z" />
<glyph unicode="&#xd6;" horiz-adv-x="1740" d="M150 715q2 -309 204.5 -525.5t493.5 -216.5t493.5 216.5t206.5 525.5q-4 307 -207.5 523t-493.5 216t-492.5 -216t-204.5 -523zM205 715.5q0 283.5 189.5 484.5t453.5 201t452.5 -201t190.5 -485q-2 -283 -190.5 -482.5t-452.5 -203.5q-266 4 -454.5 203.5t-188.5 483z M592 1714.5q0 28.5 20.5 49t49 20.5t48 -20.5t19.5 -49t-19.5 -49t-48 -20.5t-49 20.5t-20.5 49zM965 1714.5q0 28.5 20.5 49t49 20.5t49 -20.5t20.5 -49t-20.5 -49t-49 -20.5t-49 20.5t-20.5 49z" />
<glyph unicode="&#xd7;" horiz-adv-x="1269" d="M205 339.5q0 20.5 16 37.5l346 342l-344 340q-18 18 -18 40.5t14 37t37 14.5t41 -18l340 -345l342 347q16 16 36.5 16t35 -14.5t14.5 -35t-16 -36.5l-347 -342l345 -340q18 -18 18 -41t-14.5 -37t-37 -14t-40.5 18l-340 344l-342 -346q-16 -16 -37 -16t-35 14t-14 34.5z " />
<glyph unicode="&#xd8;" horiz-adv-x="1740" d="M150 715q2 307 204.5 523t492.5 216t493.5 -216t207.5 -523q-4 -309 -206.5 -525.5t-493.5 -216.5t-493.5 216.5t-204.5 525.5zM205 715.5q0 -283.5 188.5 -483t454.5 -203.5q264 4 452.5 203.5t190.5 482.5q-2 285 -190.5 485.5t-452.5 200.5t-453.5 -201t-189.5 -484.5 zM207 29q-18 14 0 37l1237 1282q6 8 17.5 9t19.5 -7q20 -16 4 -37l-1243 -1284q-10 -12 -22.5 -9t-12.5 9z" />
<glyph unicode="&#xd9;" horiz-adv-x="1556" d="M190 575q0 -240 168 -407.5t405.5 -167.5t406.5 168t169 407v832q0 10 -8 18.5t-18 8.5q-27 0 -27 -27v-832q-2 -217 -154.5 -368.5t-367.5 -155.5q-217 4 -369.5 155.5t-152.5 368.5v832q0 27 -26 27t-26 -27v-832zM541 1860q0 31 34.5 30.5t59.5 -37.5l127 -190 q8 -12 8 -24.5t-23.5 -2t-39.5 28.5l-146 158q-27 27 -20 37z" />
<glyph unicode="&#xda;" horiz-adv-x="1556" d="M190 575v832q0 27 26 27t26 -27v-832q0 -217 152.5 -368.5t369.5 -155.5q215 4 367.5 155.5t154.5 368.5v832q0 27 27 27q10 0 18 -8.5t8 -18.5v-832q0 -240 -169 -407.5t-406.5 -167.5t-405.5 167.5t-168 407.5zM612 1638.5q0 12.5 9 24.5l127 190q25 37 50 37t33 -6 q10 -6 11 -24q6 -10 -21 -37l-145 -158q-16 -18 -40 -28.5t-24 2z" />
<glyph unicode="&#xdb;" horiz-adv-x="1556" d="M190 575q0 -240 168 -407.5t405.5 -167.5t406.5 168t169 407v832q0 10 -8 18.5t-18 8.5q-27 0 -27 -27v-832q-2 -217 -154.5 -368.5t-367.5 -155.5q-217 4 -369.5 155.5t-152.5 368.5v832q0 27 -26 27t-26 -27v-832zM471 1642q0 12 10 25l148 180q31 37 57 37h16 q27 0 58 -37l147 -180q10 -12 11 -25q0 -8 -10.5 -6t-22 2t-49.5 39l-144 154l-141 -156q-37 -37 -51 -37z" />
<glyph unicode="&#xdc;" horiz-adv-x="1556" d="M190 575q0 -240 168 -407.5t405.5 -167.5t406.5 168t169 407v832q0 10 -8 18.5t-18 8.5q-27 0 -27 -27v-832q-2 -217 -154.5 -368.5t-367.5 -155.5q-217 4 -369.5 155.5t-152.5 368.5v832q0 27 -26 27t-26 -27v-832zM508 1714.5q0 28.5 20.5 49t49 20.5t48 -20.5 t19.5 -49t-19.5 -49t-48 -20.5t-49 20.5t-20.5 49zM881 1714.5q0 28.5 20.5 49t49 20.5t49 -20.5t20.5 -49t-20.5 -49t-49 -20.5t-49 20.5t-20.5 49z" />
<glyph unicode="&#xdd;" horiz-adv-x="1466" d="M121 1391q-20 20 4.5 33.5t36.5 -3.5l487 -669l486 669q10 10 25.5 7t21.5 -14t-2 -23l-506 -691v-673q0 -27 -25.5 -27t-25.5 27v673zM578 1638.5q0 12.5 8 24.5l127 190q25 37 50 37t32 -6q12 -6 12 -24q6 -10 -21 -37l-145 -158q-16 -18 -39.5 -28.5t-23.5 2z" />
<glyph unicode="&#xdf;" horiz-adv-x="1269" d="M193 20v1004q0 217 124.5 354.5t316 131t304.5 -106.5t113 -252v-4q0 -137 -105.5 -237.5t-249.5 -151.5q186 -33 317.5 -125t129.5 -254t-146.5 -268.5t-367.5 -114.5q-43 0 -43 33q0 39 41 43q188 10 315 92t127 217t-124 212t-308 101q-51 6 -51 49q0 37 41 52 q358 125 358 356q0 117 -104.5 208t-248 91t-259 -125t-115.5 -301v-983q0 -49 -39 -49q-27 0 -26 28z" />
<glyph unicode="&#xe0;" horiz-adv-x="1175" d="M129 502q0 207 138.5 354.5t334.5 147.5q135 0 249 -76t173 -201v250q0 27 25.5 27t25.5 -27v-950q0 -27 -25.5 -27t-25.5 27v249q-59 -125 -173 -200.5t-249 -75.5q-197 0 -335 147.5t-138 354.5zM180 501.5q0 -186.5 124 -318.5t298 -132t298 132t124 318.5t-124 317.5 t-298 131t-298 -131t-124 -317.5zM492 1399q0 31 34.5 31t59.5 -37l127 -191q8 -12 8 -23.5t-23.5 -2t-40.5 27.5l-145 158q-27 27 -20 37z" />
<glyph unicode="&#xe1;" horiz-adv-x="1175" d="M129 502q0 207 138.5 354.5t334.5 147.5q135 0 249 -76t173 -201v250q0 27 25.5 27t25.5 -27v-950q0 -27 -25.5 -27t-25.5 27v249q-59 -125 -173 -200.5t-249 -75.5q-197 0 -335 147.5t-138 354.5zM180 501.5q0 -186.5 124 -318.5t298 -132t298 132t124 318.5t-124 317.5 t-298 131t-298 -131t-124 -317.5zM487 1178.5q0 11.5 9 23.5l127 191q25 37 50 37t32 -5q12 -8 12 -26q6 -10 -21 -37l-145 -158q-16 -18 -40 -27.5t-24 2z" />
<glyph unicode="&#xe2;" horiz-adv-x="1175" d="M129 502q0 207 138.5 354.5t334.5 147.5q135 0 249 -76t173 -201v250q0 27 25.5 27t25.5 -27v-950q0 -27 -25.5 -27t-25.5 27v249q-59 -125 -173 -200.5t-249 -75.5q-197 0 -335 147.5t-138 354.5zM180 501.5q0 -186.5 124 -318.5t298 -132t298 132t124 318.5t-124 317.5 t-298 131t-298 -131t-124 -317.5zM436 1178q0 12 10 24l148 180q31 37 57 37h17q27 0 57 -37l147 -180q10 -12 11 -24q0 -8 -10.5 -6t-21.5 2t-50 38l-144 154l-141 -156q-37 -37 -51 -36z" />
<glyph unicode="&#xe3;" horiz-adv-x="1175" d="M129 502q0 207 138.5 354.5t334.5 147.5q135 0 249 -76t173 -201v250q0 27 25.5 27t25.5 -27v-950q0 -27 -25.5 -27t-25.5 27v249q-59 -125 -173 -200.5t-249 -75.5q-197 0 -335 147.5t-138 354.5zM180 501.5q0 -186.5 124 -318.5t298 -132t298 132t124 318.5t-124 317.5 t-298 131t-298 -131t-124 -317.5zM309 1194q0 4 11.5 40t60.5 74t90 38t135 -39t129 -39q63 0 103 88q0 16 9 25.5t17 9.5q37 0 37 -35q0 -12 -4 -25q-45 -139 -162 -139q-37 0 -131 40t-131 40q-63 0 -98 -80q-12 -25 -33 -25q-33 0 -33 27z" />
<glyph unicode="&#xe4;" horiz-adv-x="1175" d="M129 502q0 207 138.5 354.5t334.5 147.5q135 0 249 -76t173 -201v250q0 27 25.5 27t25.5 -27v-950q0 -27 -25.5 -27t-25.5 27v249q-59 -125 -173 -200.5t-249 -75.5q-197 0 -335 147.5t-138 354.5zM180 501.5q0 -186.5 124 -318.5t298 -132t298 132t124 318.5t-124 317.5 t-298 131t-298 -131t-124 -317.5zM346 1255.5q0 28.5 20.5 49t49 20.5t48 -20.5t19.5 -49t-19.5 -49t-48 -20.5t-49 20.5t-20.5 49zM719 1255.5q0 28.5 20.5 49t49 20.5t49 -20.5t20.5 -49t-20.5 -49t-49 -20.5t-49 20.5t-20.5 49z" />
<glyph unicode="&#xe5;" horiz-adv-x="1175" d="M104 502q0 207 138.5 354.5t335.5 147.5q135 0 248.5 -76t172.5 -201v250q0 27 26 27t26 -27v-950q0 -27 -26 -27t-26 27v249q-59 -125 -172.5 -200.5t-248.5 -75.5q-197 0 -335.5 147.5t-138.5 354.5zM156 501.5q0 -186.5 123.5 -318.5t298 -132t298 132t123.5 318.5 t-123.5 317.5t-298 131t-298 -131t-123.5 -317.5zM414 1331v2q0 72 49 116t116.5 44t116.5 -46t49 -114v-2q0 -67 -47 -115.5t-117.5 -48.5t-118.5 48.5t-48 115.5zM463 1329q0 -45 33.5 -81t83 -36t83 36t33.5 81v2q0 45 -33.5 81t-83 36t-83 -36t-33.5 -81v-2z" />
<glyph unicode="&#xe6;" horiz-adv-x="1953" d="M104 502q0 207 138.5 355.5t335.5 148.5q137 0 250.5 -76t172.5 -201v250q0 27 26 27t26 -27v-287q55 139 176 224t270 85q190 0 328.5 -132.5t152.5 -329.5v-9q-4 -25 -24 -24h-891v-6q0 -182 127 -314.5t307 -134.5q113 0 208 55.5t153 149.5q12 25 41 2q14 -14 2 -31 q-66 -102 -173.5 -164.5t-242.5 -61.5t-256 87t-178 221v-282q0 -27 -26 -27t-26 27v249q-59 -125 -172.5 -200.5t-250.5 -75.5q-197 0 -335.5 147.5t-138.5 354.5zM156 501.5q0 -186.5 123.5 -318.5t299 -132t299 132t123.5 318.5t-123.5 318.5t-299 132t-299 -132 t-123.5 -318.5zM1067 555h862q-20 168 -143 280.5t-288 112.5t-288 -112.5t-143 -280.5z" />
<glyph unicode="&#xe7;" horiz-adv-x="1169" d="M119 502q0 207 151.5 354.5t349 147.5t334.5 -109q16 -16 3 -35.5t-35 -5.5q-127 98 -304.5 98t-312.5 -132t-135 -318.5t135 -318.5t330 -132q156 0 287 101q18 12 33.5 -7.5t-1.5 -35.5q-141 -109 -319 -109q-213 2 -364.5 148.5t-151.5 353.5zM432 -243.5 q0 14.5 10 32.5l158 231h88l-133 -270q-20 -41 -49 -41t-51.5 16.5t-22.5 31z" />
<glyph unicode="&#xe8;" horiz-adv-x="1247" d="M119 502q4 209 145.5 355.5t337 146.5t333.5 -133t152 -330v-9q-4 -25 -24 -24h-893v-6q0 -184 128 -316.5t308 -134.5q113 0 208 55.5t153 149.5q14 20 35.5 6t7.5 -35q-66 -102 -173.5 -164.5t-230.5 -62.5q-201 2 -342 148.5t-145 353.5zM172 557h864 q-20 168 -143 280.5t-288 112.5t-288.5 -112.5t-144.5 -280.5zM492 1399q0 31 35 31t59 -37l127 -191q8 -12 8 -24t-23.5 -2t-39.5 28l-146 158q-27 27 -20 37z" />
<glyph unicode="&#xe9;" horiz-adv-x="1247" d="M119 502q4 209 145.5 355.5t337 146.5t333.5 -133t152 -330v-9q-4 -25 -24 -24h-893v-6q0 -184 128 -316.5t308 -134.5q113 0 208 55.5t153 149.5q14 20 35.5 6t7.5 -35q-66 -102 -173.5 -164.5t-230.5 -62.5q-201 2 -342 148.5t-145 353.5zM172 557h864 q-20 168 -143 280.5t-288 112.5t-288.5 -112.5t-144.5 -280.5zM485 1178.5q0 11.5 9 23.5l127 191q25 37 50 37t34 -5q10 -8 10 -26q6 -10 -21 -37l-145 -158q-16 -18 -40 -27.5t-24 2z" />
<glyph unicode="&#xea;" horiz-adv-x="1247" d="M119 502q4 209 145.5 355.5t337 146.5t333.5 -133t152 -330v-9q-4 -25 -24 -24h-893v-6q0 -184 128 -316.5t308 -134.5q113 0 208 55.5t153 149.5q14 20 35.5 6t7.5 -35q-66 -102 -173.5 -164.5t-230.5 -62.5q-201 2 -342 148.5t-145 353.5zM172 557h864 q-20 168 -143 280.5t-288 112.5t-288.5 -112.5t-144.5 -280.5zM381 1178q0 12 10 24l147 181q31 37 58 37h16q27 0 58 -37l147 -181q10 -12 10 -24q0 -8 -10 -6t-21.5 2t-50.5 39l-143 153l-141 -155q-37 -37 -52 -37q-29 4 -28 4z" />
<glyph unicode="&#xeb;" horiz-adv-x="1196" d="M125 502q4 -207 145.5 -353.5t341.5 -148.5q123 0 230.5 62.5t173.5 164.5q8 14 1 26.5t-20.5 12.5t-23.5 -10q-57 -94 -152.5 -149.5t-208.5 -55.5q-180 2 -308 134t-128 317v6h893q21 -1 25 24v9q-14 197 -152.5 330t-334 133t-337 -146.5t-145.5 -355.5zM178 557 q21 168 144.5 280.5t288.5 112.5t288 -112.5t143 -280.5h-864zM352 1237q0 29 20.5 49.5t49.5 20.5t48 -20.5t19 -49.5t-19 -49.5t-48 -20.5t-49.5 20.5t-20.5 49.5zM725 1237q0 29 20.5 49.5t49 20.5t49 -20.5t20.5 -49.5t-20.5 -49.5t-49 -20.5t-49 20.5t-20.5 49.5z" />
<glyph unicode="&#xec;" horiz-adv-x="575" d="M109 1399q0 31 34.5 31t59.5 -37l127 -191q8 -12 8 -23.5t-23.5 -2t-40.5 27.5l-145 158q-27 27 -20 37zM195 27q0 -27 26 -27q10 0 17.5 8t7.5 19v952q0 25 -25.5 25t-25.5 -25v-952z" />
<glyph unicode="&#xed;" horiz-adv-x="575" d="M102 1178.5q0 11.5 9 23.5l127 191q25 37 50 37t31 -5q12 -8 13 -26q6 -10 -21 -37l-145 -158q-16 -18 -40 -27.5t-24 2zM195 27v952q0 25 25.5 25t25.5 -25v-952q0 -10 -7.5 -18.5t-17.5 -8.5q-26 0 -26 27z" />
<glyph unicode="&#xee;" horiz-adv-x="575" d="M18 1178q0 12 11 24l147 180q31 37 57 37h17q27 0 57 -37l148 -180q10 -12 10 -24q-10 -6 -26.5 -5t-55.5 39l-143 154l-142 -156q-37 -37 -51 -36zM217 27q0 -27 27 -27q10 0 17 8t7 19v952q0 25 -25.5 25t-25.5 -25v-952z" />
<glyph unicode="&#xef;" horiz-adv-x="575" d="M-12 1237q0 29 20.5 49.5t49 20.5t48 -20.5t19.5 -49.5t-19.5 -49.5t-48 -20.5t-49 20.5t-20.5 49.5zM219 27q0 -27 27 -27q10 0 17 8t7 19v952q0 25 -25.5 25t-25.5 -25v-952zM360 1237q0 29 20.5 49.5t49.5 20.5t49.5 -20.5t20.5 -49.5t-20.5 -49.5t-49.5 -20.5 t-49.5 20.5t-20.5 49.5z" />
<glyph unicode="&#xf1;" d="M193 23q0 -6 4 -11q0 -8 8 -8q4 -4 6 -4h8q25 0 25 27v571q0 147 104.5 250.5t249.5 103.5t248.5 -103.5t103.5 -250.5v-571q0 -27 25.5 -27t25.5 27v571q0 168 -118.5 287t-284.5 119q-113 0 -207 -57.5t-147 -151.5v184q0 25 -25.5 25t-25.5 -25v-956zM301 1194 q0 4 11.5 40t60.5 74t90 38t135 -39t129 -39q63 0 102 88q0 16 9.5 25.5t17.5 9.5q37 0 37 -35q0 -12 -4 -25q-45 -139 -162 -139q-37 0 -131 40t-131 40q-63 0 -98 -80q-12 -25 -33 -25q-33 0 -33 27z" />
<glyph unicode="&#xf2;" horiz-adv-x="1310" d="M119 502q0 -207 138 -354.5t334.5 -147.5t336 147.5t139.5 354.5t-139.5 354.5t-336 147.5t-334.5 -147.5t-138 -354.5zM170 501.5q0 186.5 124 318.5t298 132t299 -132t125 -318.5t-125 -318.5t-299 -132t-298 132t-124 318.5zM481 1399q0 31 35 31t59 -37l127 -191 q8 -12 8.5 -23.5t-23 -2t-40.5 27.5l-145 158q-27 27 -21 37z" />
<glyph unicode="&#xf3;" horiz-adv-x="1310" d="M119 502q0 207 138 354.5t334.5 147.5t336 -147.5t139.5 -354.5t-139.5 -354.5t-336 -147.5t-334.5 147.5t-138 354.5zM170 501.5q0 -186.5 124 -318.5t298 -132t299 132t125 318.5t-125 318.5t-299 132t-298 -132t-124 -318.5zM473 1178.5q0 11.5 8 23.5l127 191 q25 37 50.5 37t33.5 -5q10 -8 10 -26q6 -10 -20 -37l-145 -158q-16 -18 -40 -27.5t-24 2z" />
<glyph unicode="&#xf4;" horiz-adv-x="1310" d="M119 502q0 -207 138 -354.5t334.5 -147.5t336 147.5t139.5 354.5t-139.5 354.5t-336 147.5t-334.5 -147.5t-138 -354.5zM170 501.5q0 186.5 124 318.5t298 132t299 -132t125 -318.5t-125 -318.5t-299 -132t-298 132t-124 318.5zM367 1178q0 12 10 24l147 180q31 37 58 37 h16q27 0 57 -37l148 -180q10 -12 10 -24q0 -8 -10 -6t-21.5 2t-50.5 38l-143 154l-142 -156q-37 -37 -51 -36q-29 4 -28 4z" />
<glyph unicode="&#xf5;" horiz-adv-x="1310" d="M119 502q0 -207 138 -354.5t334.5 -147.5t336 147.5t139.5 354.5t-139.5 354.5t-336 147.5t-334.5 -147.5t-138 -354.5zM170 501.5q0 186.5 124 318.5t298 132t299 -132t125 -318.5t-125 -318.5t-299 -132t-298 132t-124 318.5zM297 1194q0 4 11 40t60.5 74t90.5 38 t136 -39t128 -39q63 0 102 88q0 16 9.5 25.5t17.5 9.5q37 0 37 -35q0 -12 -4 -25q-45 -139 -162 -139q-37 0 -131 40t-131 40q-64 0 -99 -80q-12 -25 -32 -25q-33 0 -33 27z" />
<glyph unicode="&#xf6;" horiz-adv-x="1310" d="M119 502q0 -207 138 -354.5t334.5 -147.5t336 147.5t139.5 354.5t-139.5 354.5t-336 147.5t-334.5 -147.5t-138 -354.5zM170 501.5q0 186.5 124 318.5t298 132t299 -132t125 -318.5t-125 -318.5t-299 -132t-298 132t-124 318.5zM336 1237q0 29 20.5 49.5t49 20.5 t48 -20.5t19.5 -49.5t-19.5 -49.5t-48 -20.5t-49 20.5t-20.5 49.5zM709 1237q0 29 20.5 49.5t49 20.5t49 -20.5t20.5 -49.5t-20.5 -49.5t-49 -20.5t-49 20.5t-20.5 49.5z" />
<glyph unicode="&#xf7;" horiz-adv-x="1269" d="M131 720.5q0 -20.5 14.5 -34.5t34.5 -14h910q20 0 34.5 14t14.5 34.5t-14.5 35t-34.5 14.5h-910q-20 0 -34.5 -14.5t-14.5 -35zM561 323.5q0 38.5 27.5 66.5t66.5 28t67 -28t28 -66.5t-28 -66.5t-67 -28t-66.5 28t-27.5 66.5zM561 1120q0 39 27.5 66.5t66.5 27.5 t67 -27.5t28 -66.5t-28 -66.5t-67 -27.5t-66.5 27.5t-27.5 66.5z" />
<glyph unicode="&#xf8;" horiz-adv-x="1310" d="M119 502q0 207 138 354.5t334.5 147.5t336 -147.5t139.5 -354.5t-139.5 -354.5t-336 -147.5t-334.5 147.5t-138 354.5zM164 -23q-18 19 2 39l858 945q16 16 35.5 -0.5t3.5 -34.5l-864 -946q-6 -16 -35 -3zM170 501.5q0 -186.5 124 -318.5t298 -132t299 132t125 318.5 t-125 318.5t-299 132t-298 -132t-124 -318.5z" />
<glyph unicode="&#xf9;" d="M170 406v571q0 27 27 27q10 0 17 -8.5t7 -18.5v-571q0 -147 102.5 -251t248 -104t249 103.5t103.5 251.5v571q0 10 8 18.5t18 8.5q27 0 27 -27v-571q0 -168 -119 -287t-285.5 -119t-284.5 119t-118 287zM395 1399q0 31 35 31t59 -37l127 -191q8 -12 8 -24t-23.5 -2 t-39.5 28l-146 158q-27 27 -20 37z" />
<glyph unicode="&#xfa;" d="M170 406v571q0 27 27 27q10 0 17 -8.5t7 -18.5v-571q0 -147 102.5 -251t248 -104t249 103.5t103.5 251.5v571q0 10 8 18.5t18 8.5q27 0 27 -27v-571q0 -168 -119 -287t-285.5 -119t-284.5 119t-118 287zM467 1178.5q0 11.5 8 23.5l127 191q25 37 50.5 37t31.5 -5 q12 -8 12 -26q6 -10 -20 -37l-146 -158q-16 -18 -39.5 -27.5t-23.5 2z" />
<glyph unicode="&#xfb;" d="M170 406v571q0 27 27 27q10 0 17 -8.5t7 -18.5v-571q0 -147 102.5 -251t248 -104t249 103.5t103.5 251.5v571q0 10 8 18.5t18 8.5q27 0 27 -27v-571q0 -168 -119 -287t-285.5 -119t-284.5 119t-118 287zM326 1178q0 12 10 24l147 181q31 37 58 37h16q27 0 58 -37 l147 -181q10 -12 10 -24q0 -8 -10 -6t-21.5 2t-50.5 39l-143 153l-141 -155q-37 -37 -52 -37q-29 4 -28 4z" />
<glyph unicode="&#xfc;" d="M170 406q0 -168 118 -287t284.5 -119t285.5 119t119 287v571q0 27 -27 27q-10 0 -18 -8.5t-8 -18.5v-571q0 -147 -103.5 -251t-249 -104t-248 103.5t-102.5 251.5v571q0 10 -7 18.5t-17 8.5q-27 0 -27 -27v-571zM319 1237q0 29 20.5 49.5t49.5 20.5t48.5 -20.5 t19.5 -49.5t-19.5 -49.5t-48.5 -20.5t-49.5 20.5t-20.5 49.5zM692 1237q0 29 20.5 49.5t49.5 20.5t49 -20.5t20 -49.5t-20 -49.5t-49 -20.5t-49.5 20.5t-20.5 49.5z" />
<glyph unicode="&#xfd;" horiz-adv-x="1204" d="M106 406v571q0 27 27 27q10 0 17.5 -8.5t7.5 -18.5v-571q0 -145 103.5 -248t245.5 -103t242.5 98.5t106.5 237.5v590q0 8 8 15.5t19 7.5h4h2l4 -3q14 -14 14 -24v-920q0 -195 -137 -333t-334 -138q-106 0 -205 49q-25 10 -10 35q8 23 31 13q90 -45 184 -45 q174 0 297 122.5t123 296.5v152q-49 -94 -142 -149.5t-204 -55.5q-168 0 -286 118t-118 284zM469 1178q0 12 8 24l127 191q25 37 50.5 37t33.5 -6q10 -6 10 -25q6 -10 -20 -37l-146 -158q-16 -18 -39.5 -28t-23.5 2z" />
<glyph unicode="&#xff;" horiz-adv-x="1204" d="M106 406v571q0 27 27 27q10 0 17.5 -8.5t7.5 -18.5v-571q0 -145 103.5 -248t245.5 -103t242.5 98.5t106.5 237.5v590q0 8 8 15.5t19 7.5h4h2l4 -3q14 -14 14 -24v-920q0 -195 -137 -333t-334 -138q-106 0 -205 49q-25 10 -10 35q8 23 31 13q90 -45 184 -45 q174 0 297 122.5t123 296.5v152q-49 -94 -142 -149.5t-204 -55.5q-168 0 -286 118t-118 284zM247 1236.5q0 28.5 20.5 49t49.5 20.5t48.5 -20.5t19.5 -49t-19.5 -49t-48.5 -20.5t-49.5 20.5t-20.5 49zM620 1236.5q0 28.5 20.5 49t49 20.5t49 -20.5t20.5 -49t-20.5 -49 t-49 -20.5t-49 20.5t-20.5 49z" />
<glyph unicode="&#x152;" horiz-adv-x="2955" d="M150 715q2 307 204.5 523t493.5 216q225 0 404.5 -137t254.5 -356v446q0 23 25 27h764q25 0 24.5 -26t-24.5 -26h-737v-639h649q25 0 24.5 -25.5t-24.5 -25.5h-649v-641h737q25 0 25 -25.5t-25 -25.5h-764q-25 0 -25 27v440q-76 -219 -255 -356.5t-404 -137.5 q-291 0 -493.5 216.5t-204.5 525.5zM205 715.5q0 -283.5 188.5 -483t454.5 -203.5q264 4 452.5 203.5t190.5 482.5q-2 285 -190.5 485.5t-452.5 200.5t-453.5 -201t-189.5 -484.5z" />
<glyph unicode="&#x153;" horiz-adv-x="2160" d="M119 502q0 207 138 354.5t335 147.5q158 0 283.5 -100.5t171.5 -256.5q47 156 174 255t303 99t314 -133t153 -329v-9q-4 -25 -25 -24h-891v-6q0 -182 127 -314.5t307 -134.5q113 0 208 55.5t153 149.5q12 25 41 2q14 -14 2 -31q-66 -102 -173.5 -164.5t-248.5 -61.5 t-269 101.5t-175 253.5q-45 -156 -171 -256t-284 -100q-197 0 -335 147.5t-138 354.5zM170 501.5q0 -186.5 124 -318.5t298 -132t299 132t125 318.5t-125 318.5t-299 132t-298 -132t-124 -318.5zM1077 555h862q-20 168 -143 280.5t-288 112.5t-287.5 -112.5t-143.5 -280.5z " />
<glyph unicode="&#x178;" horiz-adv-x="1466" d="M121 1391l502 -691v-673q0 -27 25.5 -27t25.5 27v673l506 691q8 10 1 23t-20.5 15.5t-25.5 -8.5l-486 -669l-487 669q-16 20 -36 2t-5 -32zM401 1591.5q0 28.5 20.5 49t49.5 20.5t49.5 -20.5t20.5 -49t-20.5 -49t-49.5 -20.5t-49.5 20.5t-20.5 49zM772 1591.5 q0 28.5 20.5 49t49 20.5t49 -20.5t20.5 -49t-20.5 -49t-49 -20.5t-49 20.5t-20.5 49z" />
<glyph unicode="&#x2c6;" horiz-adv-x="1024" d="M289 1233q0 12 10 24l147 181q31 37 58 37h16q27 0 58 -37l147 -181q10 -12 10 -24q0 -8 -10 -6t-21.5 2t-50.5 39l-143 153l-141 -155q-37 -37 -52 -37q-29 4 -28 4z" />
<glyph unicode="&#x2dc;" horiz-adv-x="1024" d="M215 1235q0 4 11.5 40t60.5 73.5t90 37.5t135 -38.5t129 -38.5q63 0 102 88q0 16 9.5 25.5t17.5 9.5q37 0 37 -35q0 -12 -4 -25q-45 -139 -162 -139q-37 0 -131 40t-131 40q-63 0 -98 -80q-12 -25 -33 -25q-33 0 -33 27z" />
<glyph unicode="&#x2000;" horiz-adv-x="945" />
<glyph unicode="&#x2001;" horiz-adv-x="1891" />
<glyph unicode="&#x2002;" horiz-adv-x="945" />
<glyph unicode="&#x2003;" horiz-adv-x="1891" />
<glyph unicode="&#x2004;" horiz-adv-x="630" />
<glyph unicode="&#x2005;" horiz-adv-x="472" />
<glyph unicode="&#x2006;" horiz-adv-x="315" />
<glyph unicode="&#x2007;" horiz-adv-x="315" />
<glyph unicode="&#x2008;" horiz-adv-x="236" />
<glyph unicode="&#x2009;" horiz-adv-x="378" />
<glyph unicode="&#x200a;" horiz-adv-x="105" />
<glyph unicode="&#x2010;" horiz-adv-x="835" d="M135.5 716.5q-0.5 20.5 20.5 20.5h467q18 0 18 -20.5t-18 -20.5h-467q-20 0 -20.5 20.5z" />
<glyph unicode="&#x2011;" horiz-adv-x="835" d="M135.5 716.5q-0.5 20.5 20.5 20.5h467q18 0 18 -20.5t-18 -20.5h-467q-20 0 -20.5 20.5z" />
<glyph unicode="&#x2012;" horiz-adv-x="835" d="M135.5 716.5q-0.5 20.5 20.5 20.5h467q18 0 18 -20.5t-18 -20.5h-467q-20 0 -20.5 20.5z" />
<glyph unicode="&#x2013;" horiz-adv-x="1081" d="M135 608q0 41 53 41h705q53 0 53 -41q0 -35 -53 -35h-705q-27 -2 -40 9.5t-13 25.5z" />
<glyph unicode="&#x2014;" horiz-adv-x="1839" d="M135 608q0 41 53 41h879q53 0 53 -41q0 -35 -53 -35h-879q-27 -2 -40 9.5t-13 25.5z" />
<glyph unicode="&#x2018;" horiz-adv-x="471" d="M158 1110v51q0 158 60.5 218.5t96 60.5t35.5 -31q0 -16 -16 -27q-104 -57 -96 -157q55 -14 55 -72v-43q0 -29 -19.5 -48.5t-48 -19.5t-48 19.5t-19.5 48.5z" />
<glyph unicode="&#x2019;" horiz-adv-x="471" d="M121 1075q0 16 16 27q104 57 96 158q-55 14 -55 71v43q0 27 19.5 47.5t48 20.5t48 -20.5t19.5 -47.5v-51q0 -158 -60 -218.5t-96 -60.5t-36 31z" />
<glyph unicode="&#x201a;" horiz-adv-x="471" />
<glyph unicode="&#x201c;" horiz-adv-x="839" d="M158 1110v51q0 158 60.5 218.5t96 60.5t35.5 -31q0 -16 -16 -27q-104 -57 -96 -157q55 -14 55 -72v-43q0 -29 -19.5 -48.5t-48 -19.5t-48 19.5t-19.5 48.5zM526 1110v51q0 158 60.5 218.5t96.5 60.5t36 -31q0 -16 -17 -27q-104 -57 -96 -157q55 -14 56 -72v-43 q0 -29 -19.5 -48.5t-48.5 -19.5t-48.5 19.5t-19.5 48.5z" />
<glyph unicode="&#x201d;" horiz-adv-x="839" d="M121 1075q0 16 16 27q104 57 96 158q-55 14 -55 71v43q0 27 19.5 47.5t48 20.5t48 -20.5t19.5 -47.5v-51q0 -158 -60 -218.5t-96 -60.5t-36 31zM489 1075q0 16 17 27q104 57 96 158q-55 14 -55 71v43q0 27 19.5 47.5t48 20.5t48 -20.5t19.5 -47.5v-51 q0 -158 -60.5 -218.5t-96.5 -60.5t-36 31z" />
<glyph unicode="&#x201e;" horiz-adv-x="839" d="M111 -184q0 16 16 26q104 57 96 158q-55 14 -55 72v43q0 29 19.5 48t48 19t48 -19.5t19.5 -47.5v-52q0 -158 -60.5 -218t-96 -60t-35.5 31zM479 -184q0 16 17 26q104 57 96 158q-55 14 -55 72v43q0 29 20.5 48t47 19t47 -19.5t20.5 -47.5v-52q0 -158 -60.5 -218 t-96.5 -60t-36 31z" />
<glyph unicode="&#x2026;" horiz-adv-x="1392" d="M168 61.5q0 36.5 25.5 62.5t62.5 26t62.5 -26t25.5 -62.5t-25.5 -62.5t-62.5 -26t-62.5 26t-25.5 62.5zM600 61.5q0 36.5 25.5 62.5t62.5 26t62.5 -26t25.5 -62.5t-25.5 -62.5t-62.5 -26t-62.5 26t-25.5 62.5zM1032 61.5q0 36.5 25.5 62.5t62.5 26t62.5 -26t25.5 -62.5 t-25.5 -62.5t-62.5 -26t-62.5 26t-25.5 62.5z" />
<glyph unicode="&#x202f;" horiz-adv-x="378" />
<glyph unicode="&#x2039;" horiz-adv-x="636" d="M113 522.5q0 18.5 20 44.5l281 367q8 12 32.5 8t26.5 -20q2 -20 -8 -33l-289 -369l289 -364q23 -29 15.5 -45.5t-31 -16.5t-35.5 19l-281 364q-20 27 -20 45.5z" />
<glyph unicode="&#x203a;" horiz-adv-x="636" d="M152 106q-10 20 12 50l289 364l-289 369q-10 13 -8 33q2 16 26.5 20t32.5 -8l281 -367q20 -27 20 -45t-20 -45l-281 -364q-12 -18 -35.5 -18.5t-27.5 11.5z" />
<glyph unicode="&#x205f;" horiz-adv-x="472" />
<glyph unicode="&#x2122;" horiz-adv-x="1413" d="M45 1423.5q0 10.5 10 10.5h430q12 0 12.5 -10.5t-12.5 -10.5h-202v-586q0 -10 -10.5 -10t-10.5 10v586h-207q-10 0 -10 10.5zM610 827v594q0 12 11 13q4 0 4 -2q2 0 6 -2l239 -330l236 330q8 4 10 4q10 0 10 -13v-594q0 -10 -10 -10t-10 10v562l-225 -314q-8 -4 -11 -4 h-4q-4 0 -8 4l-227 314v-562q0 -10 -10.5 -10t-10.5 10z" />
<glyph unicode="&#x25fc;" horiz-adv-x="1003" d="M0 0v1004h1004v-1004h-1004z" />
</font>
</defs>
</svg>
